# xmcd CD database file
#
# Track frame offsets:
#	150
#	22988
#	38616
#	59099
#	71947
#	94019
#	114349
#	128312
#	148530
#	172976
#
# Disc length: 2619 seconds
#
# Revision: 1
# Processed by: cddbd v1.5.2PL0 Copyright (c) Steve Scherf et al.
# Submitted via: CDex 1.51
#
DISCID=7f0a390a
DTITLE=B.B. KING - Love Me Tender
DYEAR=1982
DGENRE=Blues
TTITLE0=One Of Those Nights
TTITLE1=Love Me Tender
TTITLE2=Don't Change On Me
TTITLE3=(I'd be) A Legend In My Time
TTITLE4=You've Always Got The Blues
TTITLE5=Nightlife, Please Send Me Someone
TTITLE6=You And Me, Me And You
TTITLE7=Since I Met You Baby
TTITLE8=Time Is A Thief
TTITLE9=A World I Never Made
EXTD=YEAR: 1982
EXTT0=
EXTT1=
EXTT2=
EXTT3=
EXTT4=
EXTT5=
EXTT6=
EXTT7=
EXTT8=
EXTT9=
PLAYORDER=
